<?xml version="1.0" encoding="UTF-8" standalone="no"?><svg xmlns="http://www.w3.org/2000/svg" xmlns:xlink="http://www.w3.org/1999/xlink" contentScriptType="application/ecmascript" contentStyleType="text/css" height="163px" preserveAspectRatio="none" style="width:227px;height:163px;background:#FFFFFF;" version="1.1" viewBox="0 0 227 163" width="227px" zoomAndPan="magnify"><defs><filter height="300%" id="f4n7q1vgk4vag" width="300%" x="-1" y="-1"><feGaussianBlur result="blurOut" stdDeviation="2.0"/><feColorMatrix in="blurOut" result="blurOut2" type="matrix" values="0 0 0 0 0 0 0 0 0 0 0 0 0 0 0 0 0 0 .4 0"/><feOffset dx="4.0" dy="4.0" in="blurOut2" result="blurOut3"/><feBlend in="SourceGraphic" in2="blurOut3" mode="normal"/></filter></defs><g><!--MD5=[f25a32bf479afdfc8993e7f19c33878b]
class 0--><a href="http://2024.biohackathon.org/pbo/v1/shex/classShape" target="_top" title="http://2024.biohackathon.org/pbo/v1/shex/classShape" xlink:actuate="onRequest" xlink:href="http://2024.biohackathon.org/pbo/v1/shex/classShape" xlink:show="new" xlink:title="http://2024.biohackathon.org/pbo/v1/shex/classShape" xlink:type="simple"><rect codeLine="1" fill="#FEFECE" filter="url(#f4n7q1vgk4vag)" height="131.2188" id="0" style="stroke:#A80036;stroke-width:1.5;" width="206" x="7" y="7"/><ellipse cx="70.25" cy="23" fill="#FF7700" rx="11" ry="11" style="stroke:#A80036;stroke-width:1.0;"/><path d="M69.7344,23.5625 Q67.875,22.8594 67.2188,22.0938 Q66.5781,21.3125 66.5781,20 Q66.5781,18.3125 67.6563,17.3438 Q68.7344,16.375 70.6094,16.375 Q71.4688,16.375 72.3125,16.5781 Q73.1719,16.7656 74.0156,17.1563 L74.0156,19.5469 Q73.2344,18.9844 72.4063,18.7031 Q71.5938,18.4063 70.7969,18.4063 Q69.9219,18.4063 69.4375,18.7656 Q68.9688,19.125 68.9688,19.7813 Q68.9688,20.2969 69.3125,20.6406 Q69.6563,20.9688 70.75,21.375 L71.8125,21.7813 Q73.2969,22.3281 74,23.2344 Q74.7188,24.1406 74.7188,25.5156 Q74.7188,27.3906 73.6094,28.3125 Q72.5,29.2344 70.25,29.2344 Q69.3281,29.2344 68.4063,29.0156 Q67.4844,28.7969 66.625,28.375 L66.625,25.8438 Q67.5938,26.5313 68.5156,26.875 Q69.4375,27.2188 70.3281,27.2188 Q71.2344,27.2188 71.7344,26.8125 Q72.2344,26.3906 72.2344,25.6563 Q72.2344,25.0938 71.8906,24.6875 Q71.5625,24.2656 70.9375,24.0156 L69.7344,23.5625 Z " fill="#000000"/><text fill="#000000" font-family="sans-serif" font-size="12" lengthAdjust="spacing" textLength="71" x="90.75" y="27.1543">:classShape</text><line style="stroke:#A80036;stroke-width:1.5;" x1="8" x2="212" y1="39" y2="39"/><text fill="#000000" font-family="sans-serif" font-size="11" lengthAdjust="spacing" textLength="14" x="13" y="53.2104">IRI</text><line style="stroke:#A80036;stroke-width:1.0;" x1="8" x2="212" y1="59.8047" y2="59.8047"/></a><a href="http://www.w3.org/1999/02/22-rdf-syntax-ns#type" target="_top" title="http://www.w3.org/1999/02/22-rdf-syntax-ns#type" xlink:actuate="onRequest" xlink:href="http://www.w3.org/1999/02/22-rdf-syntax-ns#type" xlink:show="new" xlink:title="http://www.w3.org/1999/02/22-rdf-syntax-ns#type" xlink:type="simple"><text fill="#0000FF" font-family="sans-serif" font-size="11" lengthAdjust="spacing" text-decoration="underline" textLength="7" x="13" y="74.0151">a</text></a><text fill="#000000" font-family="sans-serif" font-size="11" lengthAdjust="spacing" textLength="4" x="24" y="74.0151">:</text><a href="http://www.w3.org/2002/07/owl#Class" target="_top" title="http://www.w3.org/2002/07/owl#Class" xlink:actuate="onRequest" xlink:href="http://www.w3.org/2002/07/owl#Class" xlink:show="new" xlink:title="http://www.w3.org/2002/07/owl#Class" xlink:type="simple"><text fill="#0000FF" font-family="sans-serif" font-size="11" lengthAdjust="spacing" text-decoration="underline" textLength="53" x="32" y="74.0151">owl:Class</text></a><line style="stroke:#A80036;stroke-width:1.0;" x1="8" x2="212" y1="80.6094" y2="80.6094"/><a href="http://www.w3.org/2000/01/rdf-schema#label" target="_top" title="http://www.w3.org/2000/01/rdf-schema#label" xlink:actuate="onRequest" xlink:href="http://www.w3.org/2000/01/rdf-schema#label" xlink:show="new" xlink:title="http://www.w3.org/2000/01/rdf-schema#label" xlink:type="simple"><text fill="#0000FF" font-family="sans-serif" font-size="11" lengthAdjust="spacing" text-decoration="underline" textLength="53" x="13" y="94.8198">rdfs:label</text></a><text fill="#000000" font-family="sans-serif" font-size="11" lengthAdjust="spacing" textLength="62" x="70" y="94.8198">: [ @en ] +</text><line style="stroke:#A80036;stroke-width:1.0;" x1="8" x2="212" y1="101.4141" y2="101.4141"/><a href="http://www.w3.org/2000/01/rdf-schema#subClassOf" target="_top" title="http://www.w3.org/2000/01/rdf-schema#subClassOf" xlink:actuate="onRequest" xlink:href="http://www.w3.org/2000/01/rdf-schema#subClassOf" xlink:show="new" xlink:title="http://www.w3.org/2000/01/rdf-schema#subClassOf" xlink:type="simple"><text fill="#0000FF" font-family="sans-serif" font-size="11" lengthAdjust="spacing" text-decoration="underline" textLength="89" x="13" y="115.6245">rdfs:subClassOf</text></a><text fill="#000000" font-family="sans-serif" font-size="11" lengthAdjust="spacing" textLength="101" x="106" y="115.6245">: [ obo:PBO_~ ] +</text><line style="stroke:#A80036;stroke-width:1.0;" x1="8" x2="212" y1="122.2188" y2="122.2188"/><line style="stroke:#A80036;stroke-width:1.0;" x1="8" x2="212" y1="130.2188" y2="130.2188"/><text fill="#888888" font-family="sans-serif" font-size="10" lengthAdjust="spacing" textLength="67" x="107" y="154.501">Generated by</text><a href="https://rdfshape.weso.es" target="_top" title="https://rdfshape.weso.es" xlink:actuate="onRequest" xlink:href="https://rdfshape.weso.es" xlink:show="new" xlink:title="https://rdfshape.weso.es" xlink:type="simple"><text fill="#0000FF" font-family="sans-serif" font-size="10" lengthAdjust="spacing" text-decoration="underline" textLength="43" x="177" y="154.501">rdfshape</text></a><!--MD5=[d9b418b94debe6c07ae20371ac9ad288]
@startuml
class ":classShape" as 0 <<(S,#FF7700)>> [[http://2024.biohackathon.org/pbo/v1/shex/classShape :classShape]] {
IRI
- -
[[http://www.w3.org/1999/02/22-rdf-syntax-ns#type a]] : [[http://www.w3.org/2002/07/owl#Class owl:Class]]   
- -
[[http://www.w3.org/2000/01/rdf-schema#label rdfs:label]] : [ @en ] +
- -
[[http://www.w3.org/2000/01/rdf-schema#subClassOf rdfs:subClassOf]] : [ obo:PBO_~ ] +
- -
- -
}

right footer Generated by [[https://rdfshape.weso.es rdfshape]]
@enduml

PlantUML version 1.2021.14(Fri Nov 12 16:46:50 GMT 2021)
(GPL source distribution)
Java Runtime: OpenJDK Runtime Environment
JVM: OpenJDK 64-Bit Server VM
Default Encoding: UTF-8
Language: en
Country: US
--></g></svg>